<?xml version="1.0" encoding="utf-8"?>
<!-- Generator: Adobe Illustrator 16.0.0, SVG Export Plug-In . SVG Version: 6.00 Build 0)  -->
<!DOCTYPE svg PUBLIC "-//W3C//DTD SVG 1.1//EN" "http://www.w3.org/Graphics/SVG/1.1/DTD/svg11.dtd">
<svg version="1.1" id="Layer_1" xmlns="http://www.w3.org/2000/svg" xmlns:xlink="http://www.w3.org/1999/xlink" x="0px" y="0px"
	 width="50px" height="50px" viewBox="0 0 50 50" enable-background="new 0 0 50 50" xml:space="preserve">
<rect x="3.263" y="6.914" fill="#FFFFFF" stroke="#4D4D4D" stroke-width="2" stroke-linecap="round" stroke-linejoin="round" stroke-miterlimit="10" width="27.465" height="27.464"/>
<path fill="#FFFFFF" stroke="#4D4D4D" stroke-width="2" stroke-linecap="round" stroke-linejoin="round" stroke-miterlimit="10" d="
	M16.29,34.337c0,2.817-2.284,5.103-5.103,5.103c-2.818,0-5.103-2.285-5.103-5.103c0-2.819,2.285-5.104,5.103-5.104
	S16.29,31.518,16.29,34.337z"/>
<line fill="none" stroke="#4D4D4D" stroke-width="2" stroke-linecap="round" stroke-linejoin="round" stroke-miterlimit="10" x1="30.729" y1="14.463" x2="40.52" y2="14.463"/>
<line fill="none" stroke="#4D4D4D" stroke-width="2" stroke-linecap="round" stroke-linejoin="round" stroke-miterlimit="10" x1="40.52" y1="14.463" x2="48.006" y2="21.952"/>
<line fill="none" stroke="#4D4D4D" stroke-width="2" stroke-linecap="round" stroke-linejoin="round" stroke-miterlimit="10" x1="48.006" y1="21.952" x2="48.006" y2="34.337"/>
<line fill="none" stroke="#4D4D4D" stroke-width="2" stroke-linecap="round" stroke-linejoin="round" stroke-miterlimit="10" x1="48.006" y1="34.337" x2="30.729" y2="34.337"/>
<circle fill="#FFFFFF" stroke="#4D4D4D" stroke-width="2" stroke-linecap="round" stroke-linejoin="round" stroke-miterlimit="10" cx="39.189" cy="34.378" r="5.103"/>
<line fill="none" stroke="#4D4D4D" stroke-width="2" stroke-linecap="round" stroke-linejoin="round" stroke-miterlimit="10" x1="40.52" y1="14.463" x2="40.52" y2="21.952"/>
<line fill="none" stroke="#4D4D4D" stroke-width="2" stroke-linecap="round" stroke-linejoin="round" stroke-miterlimit="10" x1="40.52" y1="21.952" x2="48.006" y2="21.952"/>
<line fill="none" stroke="#4D4D4D" stroke-width="2" stroke-linecap="round" stroke-linejoin="round" stroke-miterlimit="10" x1="3.927" y1="26.857" x2="30.729" y2="26.857"/>
</svg>
