<?xml version="1.0" encoding="iso-8859-1"?>
<!-- Generator: Adobe Illustrator 19.0.0, SVG Export Plug-In . SVG Version: 6.00 Build 0)  -->
<svg xmlns="http://www.w3.org/2000/svg" xmlns:xlink="http://www.w3.org/1999/xlink" version="1.1" id="Layer_1" x="0px" y="0px" viewBox="0 0 512 512" style="enable-background:new 0 0 512 512;" xml:space="preserve" width="512px" height="512px">
<g>
	<g>
		<path d="M494.186,253.912c-1.889-3.97-6.638-5.657-10.605-3.77c-3.97,1.888-5.657,6.636-3.77,10.605    c15.803,33.231,20.1,61.781,12.814,84.978c-12.48-52.8-64.303-110.476-105.263-151.514l27.121-28.57    c21.158,24.63,38.425,47.945,51.389,69.394c2.274,3.763,7.168,4.967,10.928,2.695c3.763-2.274,4.97-7.166,2.695-10.928    c-13.874-22.955-32.431-47.874-55.181-74.125c1.933-5.882,0.827-12.486-3.326-17.494l5.441-5.682    c5.253-5.484,5.157-14.316-0.212-19.686l-24.018-24.016c-2.658-2.658-6.193-4.123-9.953-4.123c-3.644,0-7.1,1.388-9.733,3.908    l-5.654,5.413c-3.405-3.075-7.757-4.776-12.381-4.776c-1.989,0-3.931,0.332-5.776,0.938C291.841,29.332,235.03,0,189.805,0    c-12.516,0-24.323,2.242-35.094,6.665c-5.886,2.416-9.394,8.303-8.727,14.648c0.667,6.35,5.325,11.383,11.59,12.524    c54.16,9.864,120.15,73.234,148.16,101.243c-2.983,3.329-4.653,7.559-4.712,12.081c-0.059,4.532,1.508,8.812,4.414,12.219    L145.481,312.536c-3.175,3.04-3.285,8.078-0.245,11.254c3.038,3.174,8.077,3.284,11.253,0.244l160.153-153.341l24.681,24.681    L56.563,492.781c-2.008,2.098-4.712,3.271-7.616,3.301c-2.922,0.014-5.636-1.082-7.688-3.136l-22.191-22.191    c-2.054-2.053-3.167-4.784-3.136-7.688c0.032-2.904,1.204-5.609,3.301-7.618l115.573-110.657c3.175-3.04,3.285-8.078,0.244-11.253    c-3.038-3.174-8.077-3.284-11.253-0.244L8.226,443.952c-5.217,4.994-8.132,11.721-8.21,18.942    c-0.079,7.221,2.69,14.01,7.796,19.116l22.192,22.192c5.035,5.035,11.708,7.799,18.817,7.797c0.101,0,0.199-0.001,0.3-0.002    c7.22-0.078,13.947-2.995,18.94-8.21l284.631-297.273c3.232,2.517,7.175,3.897,11.338,3.897h0.001    c4.543,0,8.948-1.711,12.321-4.717c28.169,28.113,91.992,94.425,101.831,148.707c1.137,6.27,6.171,10.934,12.526,11.604    c0.518,0.054,1.031,0.082,1.541,0.082c5.743,0,10.892-3.4,13.111-8.809C517.031,328.824,513.271,294.047,494.186,253.912z     M392.22,98.328l21.465,21.466l-3.893,4.068l-10.82-10.82l-10.82-10.82L392.22,98.328z M166.248,19.402    c7.342-2.314,15.242-3.485,23.557-3.485c40.759,0,93.198,27.27,155.941,81.075l-28.53,27.084    C256.074,63.326,206.557,28.988,166.248,19.402z M370.465,188.888c-0.001,0.001-0.002,0.002-0.003,0.003l-4.552,4.795    c-0.664,0.703-1.462,0.809-1.879,0.809c-0.49,0-1.207-0.132-1.834-0.76l-4.111-4.11l-35.695-35.695    c-0.001-0.001-0.003-0.003-0.005-0.004l-4.687-4.687c-0.674-0.673-0.765-1.459-0.76-1.868c0.005-0.409,0.117-1.193,0.809-1.849    l4.801-4.558c0.001-0.001,0.001-0.001,0.001-0.001l17.114-16.247l22.927-21.766l0.224-0.19c0.589-0.499,1.224-0.623,1.666-0.623    c0.402,0,1.174,0.099,1.835,0.76l42.219,42.219c0.961,0.961,1.01,2.458,0.153,3.486c-0.01,0.012-0.021,0.021-0.031,0.032    L370.465,188.888z" fill="#666666"/>
	</g>
</g>
<g>
</g>
<g>
</g>
<g>
</g>
<g>
</g>
<g>
</g>
<g>
</g>
<g>
</g>
<g>
</g>
<g>
</g>
<g>
</g>
<g>
</g>
<g>
</g>
<g>
</g>
<g>
</g>
<g>
</g>
</svg>
