<?xml version="1.0" encoding="utf-8"?>
<!-- Generator: Adobe Illustrator 16.0.0, SVG Export Plug-In . SVG Version: 6.00 Build 0)  -->
<!DOCTYPE svg PUBLIC "-//W3C//DTD SVG 1.1//EN" "http://www.w3.org/Graphics/SVG/1.1/DTD/svg11.dtd">
<svg version="1.1" id="Layer_1" xmlns="http://www.w3.org/2000/svg" xmlns:xlink="http://www.w3.org/1999/xlink" x="0px" y="0px"
	 width="100px" height="100px" viewBox="0 0 100 100" enable-background="new 0 0 100 100" xml:space="preserve">
<line fill="none" stroke="#FFC275" stroke-width="3" stroke-linecap="round" stroke-miterlimit="10" x1="86.04" y1="28.37" x2="73.965" y2="35.133"/>
<line fill="none" stroke="#FFC275" stroke-width="3" stroke-linecap="round" stroke-miterlimit="10" x1="25.72" y1="63.285" x2="13.699" y2="70.018"/>
<line fill="none" stroke="#FFC275" stroke-width="3" stroke-linecap="round" stroke-miterlimit="10" x1="46.148" y1="28.659" x2="33.997" y2="35.464"/>
<line fill="none" stroke="#FFC275" stroke-width="3" stroke-linecap="round" stroke-miterlimit="10" x1="66.186" y1="63.285" x2="53.942" y2="70.142"/>
<line fill="none" stroke="#FFC275" stroke-width="3" stroke-linecap="round" stroke-miterlimit="10" x1="50" y1="77.734" x2="50" y2="96.799"/>
<line fill="none" stroke="#FFC275" stroke-width="3" stroke-linecap="round" stroke-miterlimit="10" x1="30.228" y1="42.488" x2="30.228" y2="55.83"/>
<line fill="none" stroke="#FFC275" stroke-width="3" stroke-linecap="round" stroke-miterlimit="10" x1="69.883" y1="42.488" x2="69.883" y2="55.83"/>
<line fill="none" stroke="#FFC275" stroke-width="3" stroke-linecap="round" stroke-miterlimit="10" x1="33.997" y1="63.459" x2="45.446" y2="70.309"/>
<line fill="none" stroke="#FFC275" stroke-width="3" stroke-linecap="round" stroke-miterlimit="10" x1="54.035" y1="28.283" x2="65.484" y2="35.133"/>
<line fill="none" stroke="#FFC275" stroke-width="3" stroke-linecap="round" stroke-miterlimit="10" x1="73.89" y1="62.938" x2="85.339" y2="69.788"/>
<line fill="none" stroke="#FFC275" stroke-width="3" stroke-linecap="round" stroke-miterlimit="10" x1="14.198" y1="28.659" x2="25.019" y2="35.133"/>
<path fill="#F58549" stroke="#F58549" stroke-miterlimit="10" d="M10.228,20.655c-3.053,0-5.526,2.474-5.526,5.526
	c0,3.052,2.474,5.526,5.526,5.526s5.526-2.474,5.526-5.526C15.754,23.129,13.281,20.655,10.228,20.655z M10.229,28.842
	c-1.47,0-2.661-1.191-2.661-2.66c0-1.47,1.191-2.661,2.661-2.661c1.469,0,2.66,1.191,2.66,2.661
	C12.889,27.651,11.698,28.842,10.229,28.842z"/>
<path fill="#F58549" stroke="#F58549" stroke-miterlimit="10" d="M30.228,32.258c-3.053,0-5.526,2.474-5.526,5.526
	s2.474,5.526,5.526,5.526c3.053,0,5.526-2.474,5.526-5.526S33.281,32.258,30.228,32.258z M30.229,40.444
	c-1.47,0-2.661-1.19-2.661-2.66c0-1.47,1.191-2.661,2.661-2.661c1.469,0,2.66,1.191,2.66,2.661
	C32.889,39.254,31.697,40.444,30.229,40.444z"/>
<path fill="#F58549" stroke="#F58549" stroke-miterlimit="10" d="M30.228,55.311c-3.053,0-5.526,2.474-5.526,5.526
	s2.474,5.526,5.526,5.526c3.053,0,5.526-2.474,5.526-5.526S33.281,55.311,30.228,55.311z M30.229,63.497
	c-1.47,0-2.661-1.19-2.661-2.659c0-1.471,1.191-2.662,2.661-2.662c1.469,0,2.66,1.191,2.66,2.662
	C32.889,62.307,31.697,63.497,30.229,63.497z"/>
<path fill="#F58549" stroke="#F58549" stroke-miterlimit="10" d="M10.228,66.884c-3.053,0-5.526,2.474-5.526,5.526
	s2.474,5.526,5.526,5.526c3.053,0,5.526-2.474,5.526-5.526S13.281,66.884,10.228,66.884z M10.229,75.07
	c-1.47,0-2.661-1.19-2.661-2.659c0-1.471,1.191-2.662,2.661-2.662c1.469,0,2.66,1.191,2.66,2.662
	C12.889,73.88,11.697,75.07,10.229,75.07z"/>
<path fill="#F58549" stroke="#F58549" stroke-miterlimit="10" d="M50.229,66.884c-3.053,0-5.527,2.474-5.527,5.526
	s2.474,5.526,5.527,5.526c3.053,0,5.525-2.474,5.525-5.526S53.281,66.884,50.229,66.884z M50.229,75.07
	c-1.47,0-2.661-1.19-2.661-2.659c0-1.471,1.191-2.662,2.661-2.662c1.469,0,2.66,1.191,2.66,2.662
	C52.889,73.88,51.697,75.07,50.229,75.07z"/>
<path fill="#F58549" stroke="#F58549" stroke-miterlimit="10" d="M69.883,32.258c-3.053,0-5.525,2.474-5.525,5.526
	s2.473,5.526,5.525,5.526c3.054,0,5.526-2.474,5.526-5.526S72.937,32.258,69.883,32.258z M69.884,40.444
	c-1.47,0-2.661-1.19-2.661-2.659c0-1.471,1.191-2.662,2.661-2.662c1.469,0,2.66,1.191,2.66,2.662
	C72.544,39.254,71.353,40.444,69.884,40.444z"/>
<path fill="#F58549" stroke="#F58549" stroke-miterlimit="10" d="M69.883,55.311c-3.053,0-5.525,2.474-5.525,5.526
	s2.473,5.526,5.525,5.526c3.054,0,5.526-2.474,5.526-5.526S72.937,55.311,69.883,55.311z M69.884,63.497
	c-1.47,0-2.661-1.19-2.661-2.659c0-1.471,1.191-2.662,2.661-2.662c1.469,0,2.66,1.191,2.66,2.662
	C72.544,62.307,71.353,63.497,69.884,63.497z"/>
<path fill="#F58549" stroke="#F58549" stroke-miterlimit="10" d="M89.767,20.655c-3.053,0-5.525,2.474-5.525,5.526
	s2.473,5.526,5.525,5.526c3.054,0,5.526-2.474,5.526-5.526S92.82,20.655,89.767,20.655z M89.768,28.842
	c-1.47,0-2.661-1.19-2.661-2.659c0-1.471,1.191-2.662,2.661-2.662c1.469,0,2.66,1.191,2.66,2.662
	C92.428,27.651,91.236,28.842,89.768,28.842z"/>
<path fill="#F58549" stroke="#F58549" stroke-miterlimit="10" d="M89.767,66.884c-3.053,0-5.525,2.474-5.525,5.526
	s2.473,5.526,5.525,5.526c3.054,0,5.526-2.474,5.526-5.526S92.82,66.884,89.767,66.884z M89.768,75.07
	c-1.47,0-2.661-1.19-2.661-2.659c0-1.471,1.191-2.662,2.661-2.662c1.469,0,2.66,1.191,2.66,2.662
	C92.428,73.88,91.236,75.07,89.768,75.07z"/>
<line fill="none" stroke="#FFC275" stroke-width="3" stroke-linecap="round" stroke-miterlimit="10" x1="50.229" y1="2.38" x2="50.229" y2="21.444"/>
<path fill="#F58549" stroke="#F58549" stroke-miterlimit="10" d="M50,20.655c-3.052,0-5.526,2.474-5.526,5.526
	s2.474,5.526,5.526,5.526c3.054,0,5.526-2.474,5.526-5.526S53.054,20.655,50,20.655z M50.001,28.842c-1.47,0-2.661-1.19-2.661-2.659
	c0-1.471,1.191-2.662,2.661-2.662c1.469,0,2.66,1.191,2.66,2.662C52.661,27.651,51.47,28.842,50.001,28.842z"/>
<line fill="none" stroke="#FFC275" stroke-width="3" stroke-linecap="round" stroke-miterlimit="10" x1="60.064" y1="59.259" x2="53.942" y2="62.686"/>
<line fill="none" stroke="#FFC275" stroke-width="3" stroke-linecap="round" stroke-miterlimit="10" x1="35.754" y1="46.021" x2="35.754" y2="52.298"/>
<line fill="none" stroke="#FFC275" stroke-width="3" stroke-linecap="round" stroke-miterlimit="10" x1="54.234" y1="36.305" x2="59.772" y2="39.263"/>
</svg>
