<?xml version="1.0" encoding="utf-8"?>
<!-- Generator: Adobe Illustrator 16.0.0, SVG Export Plug-In . SVG Version: 6.00 Build 0)  -->
<!DOCTYPE svg PUBLIC "-//W3C//DTD SVG 1.1//EN" "http://www.w3.org/Graphics/SVG/1.1/DTD/svg11.dtd">
<svg version="1.1" id="Layer_1" xmlns="http://www.w3.org/2000/svg" xmlns:xlink="http://www.w3.org/1999/xlink" x="0px" y="0px"
	 width="50px" height="50px" viewBox="0 0 50 50" enable-background="new 0 0 50 50" xml:space="preserve">
<polygon fill="none" stroke="#4D4D4D" stroke-width="2" stroke-miterlimit="10" points="17.638,1.5 10.861,10.905 10.861,11.015 
	10.861,40.73 20.911,48.5 29.413,48.5 29.413,48.5 39.051,41.641 39.051,41.641 39.182,11.222 39.182,11.222 33.225,1.5 "/>
<path fill="none" stroke="#4D4D4D" stroke-width="2" stroke-miterlimit="10" d="M21.726,39.201"/>
<polyline fill="none" stroke="#4D4D4D" stroke-width="2" stroke-miterlimit="10" points="34.783,41.557 34.783,41.557 
	34.874,12.875 34.874,12.875 30.652,4.699 19.611,4.699 15.5,12.791 15.5,12.56 15.5,40.971 "/>
<rect x="8.5" y="39.201" fill="#FFFFFF" stroke="#4D4D4D" stroke-width="2" stroke-miterlimit="10" width="33" height="4"/>
<circle fill="#FFFFFF" stroke="#4D4D4D" stroke-width="2" stroke-miterlimit="10" cx="25.204" cy="11.402" r="3.837"/>
<circle fill="#FFFFFF" stroke="#4D4D4D" stroke-width="2" stroke-miterlimit="10" cx="25.263" cy="18.25" r="2.538"/>
<circle fill="#FFFFFF" stroke="#4D4D4D" stroke-width="2" stroke-miterlimit="10" cx="25.263" cy="32.744" r="3.837"/>
<circle fill="#FFFFFF" stroke="#4D4D4D" stroke-width="2" stroke-miterlimit="10" cx="25.322" cy="25.896" r="2.539"/>
</svg>
