<?xml version="1.0" encoding="utf-8"?>
<!-- Generator: Adobe Illustrator 16.0.0, SVG Export Plug-In . SVG Version: 6.00 Build 0)  -->
<!DOCTYPE svg PUBLIC "-//W3C//DTD SVG 1.1//EN" "http://www.w3.org/Graphics/SVG/1.1/DTD/svg11.dtd">
<svg version="1.1" id="Layer_1" xmlns="http://www.w3.org/2000/svg" xmlns:xlink="http://www.w3.org/1999/xlink" x="0px" y="0px"
	 width="50px" height="42px" viewBox="0 0 50 42" enable-background="new 0 0 50 42" xml:space="preserve">
<line fill="none" stroke="#FFC275" stroke-linecap="round" stroke-linejoin="round" stroke-miterlimit="10" x1="3" y1="40.574" x2="47" y2="40.574"/>
<line fill="none" stroke="#F58549" stroke-linecap="round" stroke-linejoin="round" stroke-miterlimit="10" x1="3" y1="16.583" x2="9.167" y2="35.574"/>
<line fill="none" stroke="#F58549" stroke-linecap="round" stroke-linejoin="round" stroke-miterlimit="10" x1="47.166" y1="16.583" x2="41" y2="35.574"/>
<path fill="none" stroke="#F58549" stroke-linecap="round" stroke-linejoin="round" stroke-miterlimit="10" d="M3,13.574
	c0,0,8.578-11.97,12.667-10.259C20,5.127,21.058-3.167,28.417,5.491c4.666,5.49,8.583,7.75,8.583,7.75"/>
<path fill="none" stroke="#F58549" stroke-linecap="round" stroke-linejoin="round" stroke-miterlimit="10" d="M37,3.574"/>
<line fill="none" stroke="#F58549" stroke-linecap="round" stroke-linejoin="round" stroke-miterlimit="10" x1="9" y1="35.574" x2="41" y2="35.574"/>
<path fill="none" stroke="#F58549" stroke-linecap="round" stroke-linejoin="round" stroke-miterlimit="10" d="M30,6.499
	c0,0,4.754-6.17,8.949-1.028c4.195,5.141,7.551,7.77,7.551,7.77"/>
<circle fill="#FFFFFF" stroke="#F58549" stroke-linecap="round" stroke-linejoin="round" stroke-miterlimit="10" cx="15.292" cy="35.617" r="4.208"/>
<circle fill="#FFFFFF" stroke="#F58549" stroke-linecap="round" stroke-linejoin="round" stroke-miterlimit="10" cx="35.292" cy="35.617" r="4.208"/>
<rect x="2.5" y="13.574" fill="none" stroke="#F58549" stroke-linecap="round" stroke-linejoin="round" stroke-miterlimit="10" width="45" height="3"/>
</svg>
