<?xml version="1.0" encoding="utf-8"?>
<!-- Generator: Adobe Illustrator 16.0.0, SVG Export Plug-In . SVG Version: 6.00 Build 0)  -->
<!DOCTYPE svg PUBLIC "-//W3C//DTD SVG 1.1//EN" "http://www.w3.org/Graphics/SVG/1.1/DTD/svg11.dtd">
<svg version="1.1" id="Layer_1" xmlns="http://www.w3.org/2000/svg" xmlns:xlink="http://www.w3.org/1999/xlink" x="0px" y="0px"
	 width="50px" height="50px" viewBox="0 0 50 50" enable-background="new 0 0 50 50" xml:space="preserve">
<path fill="none" stroke="#4D4D4D" stroke-width="2" stroke-miterlimit="10" d="M15.359,40.35c0,3.82-3.094,6.915-6.917,6.915
	c-3.817,0-6.915-3.098-6.915-6.915c0-3.823,3.098-6.918,6.915-6.918C12.265,33.432,15.359,36.526,15.359,40.35z"/>
<circle fill="none" stroke="#4D4D4D" stroke-width="2" stroke-miterlimit="10" cx="24.628" cy="40.349" r="6.917"/>
<circle fill="none" stroke="#4D4D4D" stroke-width="2" stroke-miterlimit="10" cx="41.436" cy="40.349" r="6.917"/>
<circle fill="none" stroke="#4D4D4D" stroke-width="2" stroke-miterlimit="10" cx="15.912" cy="24.943" r="6.917"/>
<circle fill="none" stroke="#4D4D4D" stroke-width="2" stroke-miterlimit="10" cx="33.125" cy="24.943" r="6.918"/>
<circle fill="none" stroke="#4D4D4D" stroke-width="2" stroke-miterlimit="10" cx="24.815" cy="9.536" r="6.918"/>
<path fill="none" stroke="#4D4D4D" stroke-width="0.75" stroke-linecap="round" stroke-linejoin="round" stroke-miterlimit="10" d="
	M10.807,25.222c0-3.028,2.283-5.478,5.104-5.478"/>
<path fill="none" stroke="#4D4D4D" stroke-width="0.75" stroke-linecap="round" stroke-linejoin="round" stroke-miterlimit="10" d="
	M28.271,25.222c0-3.028,2.282-5.478,5.106-5.478"/>
<path fill="none" stroke="#4D4D4D" stroke-width="0.75" stroke-linecap="round" stroke-linejoin="round" stroke-miterlimit="10" d="
	M20.053,9.813c0-3.029,2.283-5.479,5.105-5.479"/>
<path fill="none" stroke="#4D4D4D" stroke-width="0.75" stroke-linecap="round" stroke-linejoin="round" stroke-miterlimit="10" d="
	M20.027,41.039c0-3.255,2.507-5.887,5.603-5.887"/>
<path fill="none" stroke="#4D4D4D" stroke-width="0.75" stroke-linecap="round" stroke-linejoin="round" stroke-miterlimit="10" d="
	M36.267,40.35c0-2.873,2.313-5.197,5.169-5.197"/>
<path fill="none" stroke="#4D4D4D" stroke-width="0.75" stroke-linecap="round" stroke-linejoin="round" stroke-miterlimit="10" d="
	M3.101,40.35c0-3.03,2.161-5.197,5.343-5.197"/>
</svg>
