<?xml version="1.0" encoding="utf-8"?>
<!-- Generator: Adobe Illustrator 16.0.0, SVG Export Plug-In . SVG Version: 6.00 Build 0)  -->
<!DOCTYPE svg PUBLIC "-//W3C//DTD SVG 1.1//EN" "http://www.w3.org/Graphics/SVG/1.1/DTD/svg11.dtd">
<svg version="1.1" id="Layer_1" xmlns="http://www.w3.org/2000/svg" xmlns:xlink="http://www.w3.org/1999/xlink" x="0px" y="0px"
	 width="50px" height="50px" viewBox="0 0 50 50" enable-background="new 0 0 50 50" xml:space="preserve">
<circle fill="none" stroke="#4D4D4D" stroke-width="2" stroke-miterlimit="10" cx="24.999" cy="25" r="24.283"/>
<g>
	<g>
		<path fill="#4D4D4D" d="M35.011,19.948c-0.157-0.234-0.39-0.39-0.701-0.39h-5.75l4.895-10.572c0.079-0.23,0.079-0.544-0.077-0.776
			c-0.154-0.232-0.389-0.309-0.622-0.309h-8.549c-0.465,0-0.777,0.309-0.777,0.773c0,0.469,0.313,0.776,0.777,0.776h7.308
			l-4.898,10.573c-0.076,0.236-0.076,0.545,0.077,0.779c0.154,0.232,0.389,0.31,0.624,0.31h5.518L21.875,37.515l2.332-10.806
			c0.077-0.23,0-0.464-0.156-0.618c-0.155-0.232-0.388-0.313-0.621-0.313h-6.763l5.208-16.87c0.156-0.385-0.078-0.855-0.545-0.931
			c-0.39-0.157-0.854,0.074-0.931,0.546l-5.443,17.878c-0.077,0.154-0.077,0.389,0.078,0.621c0.155,0.155,0.388,0.311,0.621,0.311
			h6.84l-2.953,13.836c-0.078,0.386,0.078,0.699,0.468,0.855c0.077,0.073,0.233,0.073,0.31,0.073c0.234,0,0.465-0.154,0.621-0.313
			l13.995-20.98C35.089,20.491,35.165,20.261,35.011,19.948z"/>
	</g>
</g>
</svg>
