<?xml version="1.0" encoding="utf-8"?>
<!-- Generator: Adobe Illustrator 16.0.0, SVG Export Plug-In . SVG Version: 6.00 Build 0)  -->
<!DOCTYPE svg PUBLIC "-//W3C//DTD SVG 1.1//EN" "http://www.w3.org/Graphics/SVG/1.1/DTD/svg11.dtd">
<svg version="1.1" id="Layer_1" xmlns="http://www.w3.org/2000/svg" xmlns:xlink="http://www.w3.org/1999/xlink" x="0px" y="0px"
	 width="50px" height="50px" viewBox="0 0 50 50" enable-background="new 0 0 50 50" xml:space="preserve">
<g>
	<path fill="#FFFFFF" stroke="#333333" stroke-miterlimit="10" d="M11.73,40.177l17.396-8.156c3.687-1.515,5.478-5.667,3.998-9.278
		c-1.483-3.612-5.672-5.311-9.362-3.798L6.71,26.165L11.73,40.177z"/>
	<circle fill="#FFFFFF" stroke="#333333" stroke-miterlimit="10" cx="9.297" cy="33.129" r="7.39"/>
	<path fill="none" stroke="#333333" stroke-miterlimit="10" d="M15.657,22.412"/>
	<path fill="none" stroke="#333333" stroke-miterlimit="10" d="M21.294,35.69"/>
</g>
<g>
	<path fill="#FFFFFF" stroke="#333333" stroke-miterlimit="10" d="M3.791,38.797l5.488-2.572c1.163-0.477,1.727-1.788,1.26-2.928
		C10.072,32.16,8.75,31.622,7.588,32.1l-5.379,2.279L3.791,38.797z"/>
	<circle fill="#FFFFFF" stroke="#333333" stroke-miterlimit="10" cx="3.024" cy="36.574" r="2.331"/>
	<path fill="none" stroke="#333333" stroke-miterlimit="10" d="M5.03,33.196"/>
	<path fill="none" stroke="#333333" stroke-miterlimit="10" d="M6.808,37.382"/>
</g>
<g>
	<path fill="#FFFFFF" stroke="#333333" stroke-miterlimit="10" d="M22.061,26.864l17.395-8.158c3.688-1.513,5.479-5.667,3.998-9.277
		c-1.483-3.611-5.671-5.312-9.36-3.798l-17.052,7.22L22.061,26.864z"/>
	<circle fill="#FFFFFF" stroke="#333333" stroke-miterlimit="10" cx="19.629" cy="19.814" r="7.39"/>
	<path fill="none" stroke="#333333" stroke-miterlimit="10" d="M25.989,9.099"/>
	<path fill="none" stroke="#333333" stroke-miterlimit="10" d="M31.626,22.377"/>
</g>
<g>
	<path fill="#FFFFFF" stroke="#333333" stroke-miterlimit="10" d="M14.073,25.533l5.526-2.591c1.172-0.481,1.74-1.801,1.27-2.948
		c-0.47-1.146-1.802-1.688-2.973-1.206l-5.417,2.294L14.073,25.533z"/>
	<circle fill="#FFFFFF" stroke="#333333" stroke-miterlimit="10" cx="13.3" cy="23.294" r="2.348"/>
	<path fill="none" stroke="#333333" stroke-miterlimit="10" d="M15.321,19.891"/>
	<path fill="none" stroke="#333333" stroke-miterlimit="10" d="M17.112,24.108"/>
</g>
<g>
	<path fill="#FFFFFF" stroke="#333333" stroke-miterlimit="10" d="M27.324,42.647l17.396-8.157c3.686-1.513,5.479-5.667,3.998-9.277
		c-1.483-3.611-5.672-5.312-9.361-3.799l-17.053,7.22L27.324,42.647z"/>
	<circle fill="#FFFFFF" stroke="#333333" stroke-miterlimit="10" cx="24.892" cy="35.599" r="7.39"/>
	<path fill="none" stroke="#333333" stroke-miterlimit="10" d="M31.253,24.882"/>
	<path fill="none" stroke="#333333" stroke-miterlimit="10" d="M36.889,38.16"/>
</g>
<g>
	<path fill="#FFFFFF" stroke="#333333" stroke-miterlimit="10" d="M19.386,41.268l5.487-2.572c1.164-0.477,1.727-1.789,1.259-2.928
		c-0.466-1.137-1.788-1.676-2.951-1.197l-5.378,2.279L19.386,41.268z"/>
	<circle fill="#FFFFFF" stroke="#333333" stroke-miterlimit="10" cx="18.619" cy="39.044" r="2.331"/>
	<path fill="none" stroke="#333333" stroke-miterlimit="10" d="M20.625,35.667"/>
	<path fill="none" stroke="#333333" stroke-miterlimit="10" d="M22.403,39.852"/>
</g>
</svg>
