<?xml version="1.0" encoding="utf-8"?>
<!-- Generator: Adobe Illustrator 16.0.0, SVG Export Plug-In . SVG Version: 6.00 Build 0)  -->
<!DOCTYPE svg PUBLIC "-//W3C//DTD SVG 1.1//EN" "http://www.w3.org/Graphics/SVG/1.1/DTD/svg11.dtd">
<svg version="1.1" id="Layer_1" xmlns="http://www.w3.org/2000/svg" xmlns:xlink="http://www.w3.org/1999/xlink" x="0px" y="0px"
	 width="50px" height="50px" viewBox="0 0 50 50" enable-background="new 0 0 50 50" xml:space="preserve">
<g>
	<path fill="#666666" d="M26.279,15.612c-0.441,0.442-0.441,1.158,0,1.6s1.158,0.441,1.6,0l0.934-0.934
		c0.336-0.336,0.427-0.847,0.227-1.277c-0.623-1.339-0.939-2.725-0.939-4.119c0-2.837,1.234-5.509,3.318-7.355l0.003,7.405
		c0,0.371,0.183,0.718,0.487,0.93l5.367,3.716c0.387,0.269,0.9,0.269,1.287,0l5.369-3.715c0.306-0.211,0.488-0.559,0.488-0.93
		l-0.001-7.405c2.083,1.845,3.317,4.515,3.318,7.349c0,2.623-1.021,5.09-2.876,6.945c-1.854,1.854-4.316,2.874-6.938,2.874
		c-0.002,0-0.005,0-0.008,0c-0.901,0-2.672-0.437-3.277-0.605c-0.393-0.109-0.814,0.002-1.103,0.29l-3.439,3.439
		c-0.441,0.441-0.441,1.158,0,1.6c0.222,0.221,0.511,0.332,0.8,0.332s0.579-0.11,0.801-0.332l2.98-2.981
		c0.831,0.206,2.26,0.519,3.236,0.52c0.004,0,0.007,0,0.01,0c3.225,0,6.257-1.256,8.537-3.537C48.743,17.139,50,14.104,50,10.877
		c-0.002-4.348-2.36-8.38-6.156-10.522c-0.351-0.198-0.779-0.195-1.127,0.008c-0.348,0.203-0.561,0.575-0.561,0.977v9l-4.236,2.932
		l-4.236-2.934l-0.005-9c0-0.402-0.214-0.774-0.562-0.977c-0.347-0.203-0.775-0.206-1.126-0.008
		c-3.796,2.145-6.154,6.179-6.154,10.528c0,1.469,0.28,2.925,0.835,4.337L26.279,15.612z"/>
	<path fill="#666666" d="M23.284,30.633L7.591,46.326c-0.59,0.59-1.374,0.915-2.208,0.916c0,0-0.001,0-0.001,0
		c-0.833,0-1.618-0.325-2.208-0.915c-0.589-0.59-0.914-1.375-0.913-2.21c0.001-0.833,0.326-1.615,0.916-2.203l13.498-13.499
		c0.442-0.442,0.442-1.158,0-1.601c-0.441-0.441-1.158-0.441-1.6,0L1.58,40.313C0.563,41.326,0.002,42.676,0,44.114
		c-0.002,1.44,0.558,2.794,1.575,3.813c1.018,1.018,2.37,1.577,3.808,1.577c0.001,0,0.002,0,0.003,0c1.438,0,2.79-0.561,3.806-1.578
		l15.692-15.693c0.442-0.441,0.442-1.157,0-1.6C24.441,30.191,23.726,30.191,23.284,30.633z"/>
	<path fill="#666666" d="M5.366,42.743c-0.373,0.001-0.723,0.146-0.981,0.405c-0.544,0.541-0.547,1.424-0.006,1.969
		c0.001,0.002,0.003,0.002,0.004,0.004c0.271,0.271,0.627,0.406,0.983,0.406c0.357,0,0.715-0.137,0.988-0.409
		c0.542-0.544,0.54-1.427-0.001-1.966C6.089,42.889,5.739,42.743,5.366,42.743C5.367,42.743,5.366,42.743,5.366,42.743z"/>
	<path fill="#666666" d="M42.351,37.009c-0.117-0.117-0.259-0.207-0.414-0.264l-3.244-1.177L26.975,23.851l1.895-1.894
		c0.441-0.441,0.441-1.158,0-1.6c-0.336-0.335-0.829-0.416-1.24-0.243L9.904,2.392c-1.072-1.076-2.5-1.668-4.02-1.67
		c-0.002,0-0.004,0-0.006,0c-1.521,0-2.949,0.591-4.024,1.665C0.777,3.463,0.184,4.894,0.185,6.416
		c0.001,1.521,0.594,2.95,1.669,4.024l17.724,17.724c-0.173,0.411-0.093,0.904,0.243,1.24c0.442,0.441,1.158,0.441,1.6,0
		l1.894-1.895l11.719,11.719l1.176,3.244c0.057,0.155,0.146,0.297,0.264,0.414l6.575,6.575c0.221,0.221,0.511,0.331,0.8,0.331
		s0.579-0.11,0.8-0.331l4.278-4.278c0.212-0.213,0.332-0.5,0.332-0.8s-0.12-0.588-0.332-0.8L42.351,37.009z M24.575,23.051
		c-0.002,0.002-0.005,0.005-0.007,0.007l-3.447,3.448L3.454,8.84c-0.648-0.648-1.006-1.51-1.006-2.426
		c0-0.917,0.356-1.779,1.005-2.427C4.1,3.34,4.961,2.984,5.878,2.984c0.001,0,0.002,0,0.004,0c0.916,0.001,1.774,0.358,2.421,1.006
		L25.97,21.656l-1.388,1.388C24.58,23.046,24.577,23.048,24.575,23.051z M43.848,47.063l-5.598-5.598l-1.176-3.244
		c-0.057-0.156-0.146-0.297-0.264-0.414L24.915,25.91l0.46-0.46l11.896,11.896c0.117,0.116,0.259,0.207,0.415,0.263l3.243,1.177
		l5.598,5.598L43.848,47.063z"/>
	<path fill="#666666" d="M6.672,5.608c-0.441-0.442-1.158-0.442-1.6,0s-0.442,1.158,0,1.6l15.605,15.605
		c0.221,0.221,0.51,0.331,0.8,0.331s0.579-0.11,0.8-0.331c0.442-0.442,0.442-1.158,0-1.6L6.672,5.608z"/>
</g>
</svg>
