<?xml version="1.0" encoding="utf-8"?>
<!-- Generator: Adobe Illustrator 16.0.0, SVG Export Plug-In . SVG Version: 6.00 Build 0)  -->
<!DOCTYPE svg PUBLIC "-//W3C//DTD SVG 1.1//EN" "http://www.w3.org/Graphics/SVG/1.1/DTD/svg11.dtd">
<svg version="1.1" id="Layer_1" xmlns="http://www.w3.org/2000/svg" xmlns:xlink="http://www.w3.org/1999/xlink" x="0px" y="0px"
	 width="50px" height="50px" viewBox="0 0 50 50" enable-background="new 0 0 50 50" xml:space="preserve">
<g>
	<path fill="#FFFFFF" stroke="#333333" stroke-miterlimit="10" d="M19.27,45.314l18.533-8.692c3.928-1.612,5.835-6.036,4.259-9.883
		c-1.579-3.847-6.043-5.659-9.972-4.046l-18.167,7.691L19.27,45.314z"/>
	<circle fill="#FFFFFF" stroke="#333333" stroke-miterlimit="10" cx="16.679" cy="37.804" r="7.873"/>
	<path fill="none" stroke="#333333" stroke-miterlimit="10" d="M29.459,40.533c4.011-1.591,5.773-6.362,4.166-10.155
		c-1.606-3.796-6.16-5.581-10.17-3.992"/>
</g>
<polygon fill="#FFFFFF" stroke="#333333" stroke-miterlimit="10" points="38.236,29.365 1.181,29.397 14.838,20.329 49.461,20.288 
	"/>
<g>
	<path fill="#FFFFFF" stroke="#333333" stroke-miterlimit="10" d="M19.315,27.241l18.613-8.729c3.944-1.619,5.86-6.063,4.277-9.926
		C40.62,4.723,36.137,2.904,32.19,4.523l-18.246,7.725L19.315,27.241z"/>
	<circle fill="#FFFFFF" stroke="#333333" stroke-miterlimit="10" cx="16.713" cy="19.7" r="7.907"/>
	<path fill="none" stroke="#333333" stroke-miterlimit="10" d="M29.549,22.44c4.028-1.597,5.799-6.388,4.185-10.198
		c-1.614-3.812-6.188-5.606-10.215-4.009"/>
</g>
<line fill="none" stroke="#333333" stroke-linecap="round" stroke-miterlimit="10" x1="29.549" y1="22.815" x2="45.864" y2="22.815"/>
</svg>
